<?xml version="1.0" encoding="UTF-8"?>
<svg xmlns="http://www.w3.org/2000/svg" xmlns:xlink="http://www.w3.org/1999/xlink" width="5000" height="3000" viewBox="0 0 5000 3000">
<defs>
<clipPath id="clip-0">
<path clip-rule="nonzero" d="M 0 434 L 5000 434 L 5000 2580 L 0 2580 Z M 0 434 "/>
</clipPath>
<clipPath id="clip-1">
<path clip-rule="nonzero" d="M 1487.011719 2579.488281 C 1058.800781 2579.488281 682.460938 2522.378906 385.511719 2454.910156 C 385.464844 2454.898438 385.40625 2454.890625 385.359375 2454.878906 C 384.917969 2454.78125 384.433594 2454.660156 383.992188 2454.558594 C 383.894531 2454.539062 383.832031 2454.53125 383.734375 2454.511719 C 383.515625 2454.460938 383.285156 2454.398438 383.066406 2454.351562 C 382.875 2454.308594 382.617188 2454.25 382.425781 2454.210938 C 382.207031 2454.160156 382.007812 2454.109375 381.785156 2454.058594 C 381.550781 2454.011719 381.296875 2453.949219 381.058594 2453.898438 C 380.894531 2453.859375 380.75 2453.828125 380.585938 2453.789062 C 380.253906 2453.710938 379.875 2453.628906 379.542969 2453.550781 C 379.433594 2453.519531 379.460938 2453.53125 379.347656 2453.511719 C 379.019531 2453.429688 378.597656 2453.328125 378.265625 2453.261719 C 378.210938 2453.25 378.175781 2453.238281 378.121094 2453.21875 C 231.296875 2419.628906 104.191406 2383.589844 0 2350.78125 L 0 2340 C 200.554688 2382.519531 562.433594 2446.28125 1025.738281 2446.269531 C 1550.050781 2446.261719 2204.238281 2364.578125 2901 2078 C 4038.261719 1610.25 4703.621094 837.46875 5000 434.320312 L 5000 981.921875 C 4663.300781 1363.621094 4036.570312 1951.480469 3077 2301 C 3073.589844 2302.238281 3070.199219 2303.46875 3066.800781 2304.699219 C 3065.980469 2305 3065.140625 2305.300781 3064.320312 2305.601562 C 3062.621094 2306.210938 3060.878906 2306.839844 3059.179688 2307.449219 C 3058.609375 2307.648438 3057.890625 2307.910156 3057.320312 2308.121094 C 3046.820312 2311.890625 3036.539062 2315.539062 3026.070312 2319.21875 C 2577.609375 2476.660156 2146.429688 2550.269531 1751.28125 2572.191406 C 1661.21875 2577.179688 1573.101562 2579.488281 1487.011719 2579.488281 "/>
</clipPath>
<clipPath id="clip-2">
<path clip-rule="nonzero" d="M 1487.011719 2579.488281 C 1058.800781 2579.488281 682.460938 2522.378906 385.511719 2454.910156 C 385.464844 2454.898438 385.40625 2454.890625 385.359375 2454.878906 C 384.917969 2454.78125 384.433594 2454.660156 383.992188 2454.558594 C 383.894531 2454.539062 383.832031 2454.53125 383.734375 2454.511719 C 383.515625 2454.460938 383.285156 2454.398438 383.066406 2454.351562 C 382.875 2454.308594 382.617188 2454.25 382.425781 2454.210938 C 382.207031 2454.160156 382.007812 2454.109375 381.785156 2454.058594 C 381.550781 2454.011719 381.296875 2453.949219 381.058594 2453.898438 C 380.894531 2453.859375 380.75 2453.828125 380.585938 2453.789062 C 380.253906 2453.710938 379.875 2453.628906 379.542969 2453.550781 C 379.433594 2453.519531 379.460938 2453.53125 379.347656 2453.511719 C 379.019531 2453.429688 378.597656 2453.328125 378.265625 2453.261719 C 378.210938 2453.25 378.175781 2453.238281 378.121094 2453.21875 C 231.296875 2419.628906 104.191406 2383.589844 0 2350.78125 L 0 2340 C 200.554688 2382.519531 562.433594 2446.28125 1025.738281 2446.269531 C 1550.050781 2446.261719 2204.238281 2364.578125 2901 2078 C 4038.261719 1610.25 4703.621094 837.46875 5000 434.320312 L 5000 981.921875 C 4663.300781 1363.621094 4036.570312 1951.480469 3077 2301 C 3073.589844 2302.238281 3070.199219 2303.46875 3066.800781 2304.699219 C 3065.980469 2305 3065.140625 2305.300781 3064.320312 2305.601562 C 3062.621094 2306.210938 3060.878906 2306.839844 3059.179688 2307.449219 C 3058.609375 2307.648438 3057.890625 2307.910156 3057.320312 2308.121094 C 3046.820312 2311.890625 3036.539062 2315.539062 3026.070312 2319.21875 C 2577.609375 2476.660156 2146.429688 2550.269531 1751.28125 2572.191406 C 1661.21875 2577.179688 1573.101562 2579.488281 1487.011719 2579.488281 "/>
</clipPath>
<linearGradient id="linear-pattern-0" gradientUnits="userSpaceOnUse" x1="0.267247" y1="0" x2="0.968513" y2="0" gradientTransform="matrix(0, -3059, 3059, 0, 2627.5, 3397)">
<stop offset="0" stop-color="rgb(5.999756%, 29.107666%, 60.064697%)" stop-opacity="1"/>
<stop offset="0.0078125" stop-color="rgb(6.09436%, 29.222107%, 60.15625%)" stop-opacity="1"/>
<stop offset="0.015625" stop-color="rgb(6.283569%, 29.454041%, 60.340881%)" stop-opacity="1"/>
<stop offset="0.0234375" stop-color="rgb(6.474304%, 29.684448%, 60.525513%)" stop-opacity="1"/>
<stop offset="0.03125" stop-color="rgb(6.663513%, 29.914856%, 60.708618%)" stop-opacity="1"/>
<stop offset="0.0390625" stop-color="rgb(6.854248%, 30.14679%, 60.89325%)" stop-opacity="1"/>
<stop offset="0.046875" stop-color="rgb(7.043457%, 30.377197%, 61.077881%)" stop-opacity="1"/>
<stop offset="0.0546875" stop-color="rgb(7.234192%, 30.607605%, 61.260986%)" stop-opacity="1"/>
<stop offset="0.0625" stop-color="rgb(7.423401%, 30.839539%, 61.445618%)" stop-opacity="1"/>
<stop offset="0.0703125" stop-color="rgb(7.614136%, 31.069946%, 61.630249%)" stop-opacity="1"/>
<stop offset="0.078125" stop-color="rgb(7.803345%, 31.300354%, 61.813354%)" stop-opacity="1"/>
<stop offset="0.0859375" stop-color="rgb(7.99408%, 31.532288%, 61.997986%)" stop-opacity="1"/>
<stop offset="0.09375" stop-color="rgb(8.183289%, 31.762695%, 62.182617%)" stop-opacity="1"/>
<stop offset="0.101562" stop-color="rgb(8.374023%, 31.993103%, 62.367249%)" stop-opacity="1"/>
<stop offset="0.109375" stop-color="rgb(8.564758%, 32.225037%, 62.550354%)" stop-opacity="1"/>
<stop offset="0.117188" stop-color="rgb(8.753967%, 32.455444%, 62.734985%)" stop-opacity="1"/>
<stop offset="0.125" stop-color="rgb(8.944702%, 32.687378%, 62.919617%)" stop-opacity="1"/>
<stop offset="0.132813" stop-color="rgb(9.133911%, 32.917786%, 63.102722%)" stop-opacity="1"/>
<stop offset="0.140625" stop-color="rgb(9.324646%, 33.148193%, 63.287354%)" stop-opacity="1"/>
<stop offset="0.148438" stop-color="rgb(9.513855%, 33.380127%, 63.471985%)" stop-opacity="1"/>
<stop offset="0.15625" stop-color="rgb(9.70459%, 33.610535%, 63.65509%)" stop-opacity="1"/>
<stop offset="0.164062" stop-color="rgb(9.893799%, 33.840942%, 63.839722%)" stop-opacity="1"/>
<stop offset="0.171875" stop-color="rgb(10.084534%, 34.072876%, 64.024353%)" stop-opacity="1"/>
<stop offset="0.179688" stop-color="rgb(10.273743%, 34.303284%, 64.208984%)" stop-opacity="1"/>
<stop offset="0.1875" stop-color="rgb(10.464478%, 34.533691%, 64.39209%)" stop-opacity="1"/>
<stop offset="0.195313" stop-color="rgb(10.653687%, 34.765625%, 64.576721%)" stop-opacity="1"/>
<stop offset="0.203125" stop-color="rgb(10.844421%, 34.996033%, 64.761353%)" stop-opacity="1"/>
<stop offset="0.210937" stop-color="rgb(11.03363%, 35.22644%, 64.944458%)" stop-opacity="1"/>
<stop offset="0.21875" stop-color="rgb(11.224365%, 35.458374%, 65.129089%)" stop-opacity="1"/>
<stop offset="0.226562" stop-color="rgb(11.4151%, 35.688782%, 65.313721%)" stop-opacity="1"/>
<stop offset="0.234375" stop-color="rgb(11.604309%, 35.920715%, 65.498352%)" stop-opacity="1"/>
<stop offset="0.242188" stop-color="rgb(11.795044%, 36.151123%, 65.681458%)" stop-opacity="1"/>
<stop offset="0.25" stop-color="rgb(11.984253%, 36.381531%, 65.866089%)" stop-opacity="1"/>
<stop offset="0.257812" stop-color="rgb(12.174988%, 36.613464%, 66.05072%)" stop-opacity="1"/>
<stop offset="0.265625" stop-color="rgb(12.364197%, 36.843872%, 66.233826%)" stop-opacity="1"/>
<stop offset="0.273438" stop-color="rgb(12.554932%, 37.07428%, 66.418457%)" stop-opacity="1"/>
<stop offset="0.28125" stop-color="rgb(12.744141%, 37.306213%, 66.603088%)" stop-opacity="1"/>
<stop offset="0.289063" stop-color="rgb(12.934875%, 37.536621%, 66.786194%)" stop-opacity="1"/>
<stop offset="0.296875" stop-color="rgb(13.124084%, 37.767029%, 66.970825%)" stop-opacity="1"/>
<stop offset="0.304687" stop-color="rgb(13.314819%, 37.998962%, 67.155457%)" stop-opacity="1"/>
<stop offset="0.3125" stop-color="rgb(13.504028%, 38.22937%, 67.340088%)" stop-opacity="1"/>
<stop offset="0.320312" stop-color="rgb(13.694763%, 38.459778%, 67.523193%)" stop-opacity="1"/>
<stop offset="0.328125" stop-color="rgb(13.883972%, 38.691711%, 67.707825%)" stop-opacity="1"/>
<stop offset="0.335938" stop-color="rgb(14.074707%, 38.922119%, 67.892456%)" stop-opacity="1"/>
<stop offset="0.34375" stop-color="rgb(14.265442%, 39.154053%, 68.075562%)" stop-opacity="1"/>
<stop offset="0.351563" stop-color="rgb(14.454651%, 39.38446%, 68.260193%)" stop-opacity="1"/>
<stop offset="0.359375" stop-color="rgb(14.645386%, 39.614868%, 68.444824%)" stop-opacity="1"/>
<stop offset="0.367187" stop-color="rgb(14.834595%, 39.846802%, 68.62793%)" stop-opacity="1"/>
<stop offset="0.375" stop-color="rgb(15.02533%, 40.077209%, 68.812561%)" stop-opacity="1"/>
<stop offset="0.382812" stop-color="rgb(15.214539%, 40.307617%, 68.997192%)" stop-opacity="1"/>
<stop offset="0.390625" stop-color="rgb(15.405273%, 40.539551%, 69.181824%)" stop-opacity="1"/>
<stop offset="0.398437" stop-color="rgb(15.594482%, 40.769958%, 69.364929%)" stop-opacity="1"/>
<stop offset="0.40625" stop-color="rgb(15.785217%, 41.000366%, 69.549561%)" stop-opacity="1"/>
<stop offset="0.414062" stop-color="rgb(15.974426%, 41.2323%, 69.734192%)" stop-opacity="1"/>
<stop offset="0.421875" stop-color="rgb(16.165161%, 41.462708%, 69.917297%)" stop-opacity="1"/>
<stop offset="0.429687" stop-color="rgb(16.35437%, 41.693115%, 70.101929%)" stop-opacity="1"/>
<stop offset="0.4375" stop-color="rgb(16.545105%, 41.925049%, 70.28656%)" stop-opacity="1"/>
<stop offset="0.445312" stop-color="rgb(16.73584%, 42.155457%, 70.469666%)" stop-opacity="1"/>
<stop offset="0.453125" stop-color="rgb(16.925049%, 42.38739%, 70.654297%)" stop-opacity="1"/>
<stop offset="0.460938" stop-color="rgb(17.115784%, 42.617798%, 70.838928%)" stop-opacity="1"/>
<stop offset="0.46875" stop-color="rgb(17.304993%, 42.848206%, 71.02356%)" stop-opacity="1"/>
<stop offset="0.476563" stop-color="rgb(17.495728%, 43.080139%, 71.206665%)" stop-opacity="1"/>
<stop offset="0.484375" stop-color="rgb(17.684937%, 43.310547%, 71.391296%)" stop-opacity="1"/>
<stop offset="0.492188" stop-color="rgb(17.875671%, 43.540955%, 71.575928%)" stop-opacity="1"/>
<stop offset="0.5" stop-color="rgb(18.06488%, 43.772888%, 71.759033%)" stop-opacity="1"/>
<stop offset="0.507812" stop-color="rgb(18.255615%, 44.003296%, 71.943665%)" stop-opacity="1"/>
<stop offset="0.515625" stop-color="rgb(18.444824%, 44.233704%, 72.128296%)" stop-opacity="1"/>
<stop offset="0.523437" stop-color="rgb(18.635559%, 44.465637%, 72.312927%)" stop-opacity="1"/>
<stop offset="0.53125" stop-color="rgb(18.824768%, 44.696045%, 72.496033%)" stop-opacity="1"/>
<stop offset="0.539062" stop-color="rgb(19.015503%, 44.926453%, 72.680664%)" stop-opacity="1"/>
<stop offset="0.546875" stop-color="rgb(19.204712%, 45.158386%, 72.865295%)" stop-opacity="1"/>
<stop offset="0.554688" stop-color="rgb(19.395447%, 45.388794%, 73.048401%)" stop-opacity="1"/>
<stop offset="0.5625" stop-color="rgb(19.586182%, 45.620728%, 73.233032%)" stop-opacity="1"/>
<stop offset="0.570312" stop-color="rgb(19.775391%, 45.851135%, 73.417664%)" stop-opacity="1"/>
<stop offset="0.578125" stop-color="rgb(19.966125%, 46.081543%, 73.600769%)" stop-opacity="1"/>
<stop offset="0.585937" stop-color="rgb(20.155334%, 46.313477%, 73.7854%)" stop-opacity="1"/>
<stop offset="0.59375" stop-color="rgb(20.346069%, 46.543884%, 73.970032%)" stop-opacity="1"/>
<stop offset="0.601562" stop-color="rgb(20.535278%, 46.774292%, 74.154663%)" stop-opacity="1"/>
<stop offset="0.609375" stop-color="rgb(20.726013%, 47.006226%, 74.337769%)" stop-opacity="1"/>
<stop offset="0.617187" stop-color="rgb(20.915222%, 47.236633%, 74.5224%)" stop-opacity="1"/>
<stop offset="0.625" stop-color="rgb(21.105957%, 47.467041%, 74.707031%)" stop-opacity="1"/>
<stop offset="0.632812" stop-color="rgb(21.295166%, 47.698975%, 74.890137%)" stop-opacity="1"/>
<stop offset="0.640625" stop-color="rgb(21.485901%, 47.929382%, 75.074768%)" stop-opacity="1"/>
<stop offset="0.648438" stop-color="rgb(21.67511%, 48.15979%, 75.259399%)" stop-opacity="1"/>
<stop offset="0.65625" stop-color="rgb(21.865845%, 48.391724%, 75.442505%)" stop-opacity="1"/>
<stop offset="0.664062" stop-color="rgb(22.055054%, 48.622131%, 75.627136%)" stop-opacity="1"/>
<stop offset="0.671875" stop-color="rgb(22.245789%, 48.854065%, 75.811768%)" stop-opacity="1"/>
<stop offset="0.679687" stop-color="rgb(22.436523%, 49.084473%, 75.996399%)" stop-opacity="1"/>
<stop offset="0.6875" stop-color="rgb(22.625732%, 49.31488%, 76.179504%)" stop-opacity="1"/>
<stop offset="0.695312" stop-color="rgb(22.816467%, 49.546814%, 76.364136%)" stop-opacity="1"/>
<stop offset="0.703125" stop-color="rgb(23.005676%, 49.777222%, 76.548767%)" stop-opacity="1"/>
<stop offset="0.710937" stop-color="rgb(23.196411%, 50.007629%, 76.731873%)" stop-opacity="1"/>
<stop offset="0.71875" stop-color="rgb(23.38562%, 50.239563%, 76.916504%)" stop-opacity="1"/>
<stop offset="0.726562" stop-color="rgb(23.576355%, 50.469971%, 77.101135%)" stop-opacity="1"/>
<stop offset="0.734375" stop-color="rgb(23.765564%, 50.700378%, 77.284241%)" stop-opacity="1"/>
<stop offset="0.742187" stop-color="rgb(23.956299%, 50.932312%, 77.468872%)" stop-opacity="1"/>
<stop offset="0.75" stop-color="rgb(24.145508%, 51.16272%, 77.653503%)" stop-opacity="1"/>
<stop offset="0.757812" stop-color="rgb(24.336243%, 51.393127%, 77.838135%)" stop-opacity="1"/>
<stop offset="0.765625" stop-color="rgb(24.525452%, 51.625061%, 78.02124%)" stop-opacity="1"/>
<stop offset="0.773438" stop-color="rgb(24.716187%, 51.855469%, 78.205872%)" stop-opacity="1"/>
<stop offset="0.78125" stop-color="rgb(24.905396%, 52.087402%, 78.390503%)" stop-opacity="1"/>
<stop offset="0.789062" stop-color="rgb(25.09613%, 52.31781%, 78.573608%)" stop-opacity="1"/>
<stop offset="0.796875" stop-color="rgb(25.286865%, 52.548218%, 78.75824%)" stop-opacity="1"/>
<stop offset="0.804687" stop-color="rgb(25.476074%, 52.780151%, 78.942871%)" stop-opacity="1"/>
<stop offset="0.8125" stop-color="rgb(25.666809%, 53.010559%, 79.127502%)" stop-opacity="1"/>
<stop offset="0.820312" stop-color="rgb(25.856018%, 53.240967%, 79.310608%)" stop-opacity="1"/>
<stop offset="0.828125" stop-color="rgb(26.046753%, 53.4729%, 79.495239%)" stop-opacity="1"/>
<stop offset="0.835937" stop-color="rgb(26.235962%, 53.703308%, 79.679871%)" stop-opacity="1"/>
<stop offset="0.84375" stop-color="rgb(26.426697%, 53.933716%, 79.862976%)" stop-opacity="1"/>
<stop offset="0.851562" stop-color="rgb(26.615906%, 54.165649%, 80.047607%)" stop-opacity="1"/>
<stop offset="0.859375" stop-color="rgb(26.806641%, 54.396057%, 80.232239%)" stop-opacity="1"/>
<stop offset="0.867187" stop-color="rgb(26.99585%, 54.626465%, 80.415344%)" stop-opacity="1"/>
<stop offset="0.875" stop-color="rgb(27.186584%, 54.858398%, 80.599976%)" stop-opacity="1"/>
<stop offset="0.882812" stop-color="rgb(27.375793%, 55.088806%, 80.784607%)" stop-opacity="1"/>
<stop offset="0.890625" stop-color="rgb(27.566528%, 55.32074%, 80.969238%)" stop-opacity="1"/>
<stop offset="0.898438" stop-color="rgb(27.755737%, 55.551147%, 81.152344%)" stop-opacity="1"/>
<stop offset="0.90625" stop-color="rgb(27.946472%, 55.781555%, 81.336975%)" stop-opacity="1"/>
<stop offset="0.914063" stop-color="rgb(28.137207%, 56.013489%, 81.521606%)" stop-opacity="1"/>
<stop offset="0.921875" stop-color="rgb(28.326416%, 56.243896%, 81.704712%)" stop-opacity="1"/>
<stop offset="0.929688" stop-color="rgb(28.517151%, 56.474304%, 81.889343%)" stop-opacity="1"/>
<stop offset="0.9375" stop-color="rgb(28.70636%, 56.706238%, 82.073975%)" stop-opacity="1"/>
<stop offset="0.945312" stop-color="rgb(28.897095%, 56.936646%, 82.25708%)" stop-opacity="1"/>
<stop offset="0.953125" stop-color="rgb(29.086304%, 57.167053%, 82.441711%)" stop-opacity="1"/>
<stop offset="0.960937" stop-color="rgb(29.277039%, 57.398987%, 82.626343%)" stop-opacity="1"/>
<stop offset="0.96875" stop-color="rgb(29.466248%, 57.629395%, 82.810974%)" stop-opacity="1"/>
<stop offset="1" stop-color="rgb(29.682922%, 57.891846%, 83.018494%)" stop-opacity="1"/>
</linearGradient>
<clipPath id="clip-3">
<path clip-rule="nonzero" d="M 0 981 L 5000 981 L 5000 3000 L 0 3000 Z M 0 981 "/>
</clipPath>
<clipPath id="clip-4">
<path clip-rule="nonzero" d="M 5000 3000 L 0 3000 L 0 2362 C 403.273438 2522.140625 1119.109375 2740.789062 1971.570312 2740.800781 C 2107.488281 2740.800781 2246.851562 2735.238281 2389 2723 C 3571.03125 2621.230469 4460.980469 2122.441406 5000 1727.929688 L 5000 3000 M 1487.011719 2579.488281 C 1058.789062 2579.488281 682.46875 2522.390625 385.511719 2454.910156 C 682.460938 2522.378906 1058.800781 2579.488281 1487.011719 2579.488281 C 1573.101562 2579.488281 1661.21875 2577.179688 1751.28125 2572.191406 C 1661.25 2577.179688 1573.070312 2579.488281 1487.011719 2579.488281 M 385.359375 2454.878906 C 384.886719 2454.769531 384.464844 2454.671875 383.992188 2454.558594 C 384.433594 2454.660156 384.917969 2454.78125 385.359375 2454.878906 M 383.734375 2454.511719 C 383.496094 2454.449219 383.304688 2454.410156 383.066406 2454.351562 C 383.285156 2454.398438 383.515625 2454.460938 383.734375 2454.511719 M 382.425781 2454.210938 C 382.191406 2454.148438 382.023438 2454.121094 381.785156 2454.058594 C 382.007812 2454.109375 382.207031 2454.160156 382.425781 2454.210938 M 381.058594 2453.898438 C 380.917969 2453.859375 380.726562 2453.820312 380.585938 2453.789062 C 380.75 2453.828125 380.894531 2453.859375 381.058594 2453.898438 M 379.542969 2453.550781 C 379.449219 2453.53125 379.445312 2453.53125 379.347656 2453.511719 C 379.460938 2453.53125 379.433594 2453.519531 379.542969 2453.550781 M 378.265625 2453.261719 C 378.21875 2453.25 378.167969 2453.238281 378.121094 2453.21875 C 378.175781 2453.238281 378.210938 2453.25 378.265625 2453.261719 M 3026.070312 2319.21875 C 3036.539062 2315.539062 3046.820312 2311.890625 3057.320312 2308.121094 C 3046.878906 2311.871094 3036.480469 2315.558594 3026.070312 2319.21875 M 3059.179688 2307.449219 C 3060.878906 2306.839844 3062.621094 2306.210938 3064.320312 2305.601562 C 3062.609375 2306.210938 3060.890625 2306.828125 3059.179688 2307.449219 M 3066.800781 2304.699219 C 3070.199219 2303.46875 3073.589844 2302.238281 3077 2301 C 4036.570312 1951.480469 4663.300781 1363.621094 5000 981.921875 C 4663.300781 1363.621094 4036.570312 1951.480469 3077 2301 C 3073.570312 2302.25 3070.21875 2303.46875 3066.800781 2304.699219 "/>
</clipPath>
<clipPath id="clip-5">
<path clip-rule="nonzero" d="M 5000 3000 L 0 3000 L 0 2362 C 403.273438 2522.140625 1119.109375 2740.789062 1971.570312 2740.800781 C 2107.488281 2740.800781 2246.851562 2735.238281 2389 2723 C 3571.03125 2621.230469 4460.980469 2122.441406 5000 1727.929688 L 5000 3000 M 1487.011719 2579.488281 C 1058.789062 2579.488281 682.46875 2522.390625 385.511719 2454.910156 C 682.460938 2522.378906 1058.800781 2579.488281 1487.011719 2579.488281 C 1573.101562 2579.488281 1661.21875 2577.179688 1751.28125 2572.191406 C 1661.25 2577.179688 1573.070312 2579.488281 1487.011719 2579.488281 M 385.359375 2454.878906 C 384.886719 2454.769531 384.464844 2454.671875 383.992188 2454.558594 C 384.433594 2454.660156 384.917969 2454.78125 385.359375 2454.878906 M 383.734375 2454.511719 C 383.496094 2454.449219 383.304688 2454.410156 383.066406 2454.351562 C 383.285156 2454.398438 383.515625 2454.460938 383.734375 2454.511719 M 382.425781 2454.210938 C 382.191406 2454.148438 382.023438 2454.121094 381.785156 2454.058594 C 382.007812 2454.109375 382.207031 2454.160156 382.425781 2454.210938 M 381.058594 2453.898438 C 380.917969 2453.859375 380.726562 2453.820312 380.585938 2453.789062 C 380.75 2453.828125 380.894531 2453.859375 381.058594 2453.898438 M 379.542969 2453.550781 C 379.449219 2453.53125 379.445312 2453.53125 379.347656 2453.511719 C 379.460938 2453.53125 379.433594 2453.519531 379.542969 2453.550781 M 378.265625 2453.261719 C 378.21875 2453.25 378.167969 2453.238281 378.121094 2453.21875 C 378.175781 2453.238281 378.210938 2453.25 378.265625 2453.261719 M 3026.070312 2319.21875 C 3036.539062 2315.539062 3046.820312 2311.890625 3057.320312 2308.121094 C 3046.878906 2311.871094 3036.480469 2315.558594 3026.070312 2319.21875 M 3059.179688 2307.449219 C 3060.878906 2306.839844 3062.621094 2306.210938 3064.320312 2305.601562 C 3062.609375 2306.210938 3060.890625 2306.828125 3059.179688 2307.449219 M 3066.800781 2304.699219 C 3070.199219 2303.46875 3073.589844 2302.238281 3077 2301 C 4036.570312 1951.480469 4663.300781 1363.621094 5000 981.921875 C 4663.300781 1363.621094 4036.570312 1951.480469 3077 2301 C 3073.570312 2302.25 3070.21875 2303.46875 3066.800781 2304.699219 "/>
</clipPath>
<linearGradient id="linear-pattern-1" gradientUnits="userSpaceOnUse" x1="0.297787" y1="0" x2="2.343247" y2="0" gradientTransform="matrix(-457.24, -1566.61, 1566.61, -457.24, 2999.62, 4090.1)">
<stop offset="0" stop-color="rgb(4.31366%, 27.058411%, 58.430481%)" stop-opacity="1"/>
<stop offset="0.03125" stop-color="rgb(4.31366%, 27.058411%, 58.430481%)" stop-opacity="1"/>
<stop offset="0.046875" stop-color="rgb(4.328918%, 27.128601%, 58.500671%)" stop-opacity="1"/>
<stop offset="0.0507812" stop-color="rgb(4.389954%, 27.404785%, 58.776855%)" stop-opacity="1"/>
<stop offset="0.0546875" stop-color="rgb(4.437256%, 27.609253%, 58.981323%)" stop-opacity="1"/>
<stop offset="0.0585938" stop-color="rgb(4.483032%, 27.813721%, 59.185791%)" stop-opacity="1"/>
<stop offset="0.0625" stop-color="rgb(4.528809%, 28.018188%, 59.391785%)" stop-opacity="1"/>
<stop offset="0.0664063" stop-color="rgb(4.574585%, 28.222656%, 59.596252%)" stop-opacity="1"/>
<stop offset="0.0703125" stop-color="rgb(4.621887%, 28.42865%, 59.80072%)" stop-opacity="1"/>
<stop offset="0.0742188" stop-color="rgb(4.667664%, 28.633118%, 60.005188%)" stop-opacity="1"/>
<stop offset="0.078125" stop-color="rgb(4.71344%, 28.837585%, 60.211182%)" stop-opacity="1"/>
<stop offset="0.0820313" stop-color="rgb(4.759216%, 29.042053%, 60.415649%)" stop-opacity="1"/>
<stop offset="0.0859375" stop-color="rgb(4.804993%, 29.248047%, 60.620117%)" stop-opacity="1"/>
<stop offset="0.0898438" stop-color="rgb(4.850769%, 29.452515%, 60.824585%)" stop-opacity="1"/>
<stop offset="0.09375" stop-color="rgb(4.898071%, 29.656982%, 61.030579%)" stop-opacity="1"/>
<stop offset="0.0976562" stop-color="rgb(4.943848%, 29.86145%, 61.235046%)" stop-opacity="1"/>
<stop offset="0.101562" stop-color="rgb(4.989624%, 30.067444%, 61.439514%)" stop-opacity="1"/>
<stop offset="0.105469" stop-color="rgb(5.0354%, 30.271912%, 61.643982%)" stop-opacity="1"/>
<stop offset="0.109375" stop-color="rgb(5.082703%, 30.476379%, 61.849976%)" stop-opacity="1"/>
<stop offset="0.113281" stop-color="rgb(5.128479%, 30.680847%, 62.054443%)" stop-opacity="1"/>
<stop offset="0.117188" stop-color="rgb(5.174255%, 30.886841%, 62.258911%)" stop-opacity="1"/>
<stop offset="0.121094" stop-color="rgb(5.220032%, 31.091309%, 62.463379%)" stop-opacity="1"/>
<stop offset="0.125" stop-color="rgb(5.267334%, 31.295776%, 62.669373%)" stop-opacity="1"/>
<stop offset="0.128906" stop-color="rgb(5.31311%, 31.500244%, 62.87384%)" stop-opacity="1"/>
<stop offset="0.132813" stop-color="rgb(5.358887%, 31.706238%, 63.078308%)" stop-opacity="1"/>
<stop offset="0.136719" stop-color="rgb(5.404663%, 31.910706%, 63.282776%)" stop-opacity="1"/>
<stop offset="0.140625" stop-color="rgb(5.450439%, 32.115173%, 63.48877%)" stop-opacity="1"/>
<stop offset="0.144531" stop-color="rgb(5.496216%, 32.319641%, 63.693237%)" stop-opacity="1"/>
<stop offset="0.148438" stop-color="rgb(5.543518%, 32.525635%, 63.897705%)" stop-opacity="1"/>
<stop offset="0.152344" stop-color="rgb(5.589294%, 32.730103%, 64.102173%)" stop-opacity="1"/>
<stop offset="0.15625" stop-color="rgb(5.635071%, 32.93457%, 64.308167%)" stop-opacity="1"/>
<stop offset="0.160156" stop-color="rgb(5.680847%, 33.139038%, 64.512634%)" stop-opacity="1"/>
<stop offset="0.164062" stop-color="rgb(5.728149%, 33.345032%, 64.717102%)" stop-opacity="1"/>
<stop offset="0.167969" stop-color="rgb(5.773926%, 33.5495%, 64.92157%)" stop-opacity="1"/>
<stop offset="0.171875" stop-color="rgb(5.819702%, 33.753967%, 65.127563%)" stop-opacity="1"/>
<stop offset="0.175781" stop-color="rgb(5.865479%, 33.958435%, 65.332031%)" stop-opacity="1"/>
<stop offset="0.179687" stop-color="rgb(5.911255%, 34.164429%, 65.536499%)" stop-opacity="1"/>
<stop offset="0.183594" stop-color="rgb(5.957031%, 34.368896%, 65.740967%)" stop-opacity="1"/>
<stop offset="0.1875" stop-color="rgb(6.004333%, 34.573364%, 65.94696%)" stop-opacity="1"/>
<stop offset="0.191406" stop-color="rgb(6.05011%, 34.777832%, 66.151428%)" stop-opacity="1"/>
<stop offset="0.195312" stop-color="rgb(6.095886%, 34.983826%, 66.355896%)" stop-opacity="1"/>
<stop offset="0.199219" stop-color="rgb(6.141663%, 35.188293%, 66.560364%)" stop-opacity="1"/>
<stop offset="0.203125" stop-color="rgb(6.188965%, 35.392761%, 66.766357%)" stop-opacity="1"/>
<stop offset="0.207031" stop-color="rgb(6.234741%, 35.597229%, 66.970825%)" stop-opacity="1"/>
<stop offset="0.210938" stop-color="rgb(6.280518%, 35.803223%, 67.175293%)" stop-opacity="1"/>
<stop offset="0.214844" stop-color="rgb(6.326294%, 36.00769%, 67.379761%)" stop-opacity="1"/>
<stop offset="0.21875" stop-color="rgb(6.37207%, 36.212158%, 67.585754%)" stop-opacity="1"/>
<stop offset="0.222656" stop-color="rgb(6.417847%, 36.416626%, 67.790222%)" stop-opacity="1"/>
<stop offset="0.226563" stop-color="rgb(6.465149%, 36.62262%, 67.99469%)" stop-opacity="1"/>
<stop offset="0.230469" stop-color="rgb(6.510925%, 36.827087%, 68.199158%)" stop-opacity="1"/>
<stop offset="0.234375" stop-color="rgb(6.556702%, 37.031555%, 68.405151%)" stop-opacity="1"/>
<stop offset="0.238281" stop-color="rgb(6.602478%, 37.236023%, 68.609619%)" stop-opacity="1"/>
<stop offset="0.242188" stop-color="rgb(6.64978%, 37.442017%, 68.814087%)" stop-opacity="1"/>
<stop offset="0.246094" stop-color="rgb(6.695557%, 37.646484%, 69.018555%)" stop-opacity="1"/>
<stop offset="0.25" stop-color="rgb(6.741333%, 37.850952%, 69.224548%)" stop-opacity="1"/>
<stop offset="0.253906" stop-color="rgb(6.787109%, 38.05542%, 69.429016%)" stop-opacity="1"/>
<stop offset="0.257812" stop-color="rgb(6.834412%, 38.261414%, 69.633484%)" stop-opacity="1"/>
<stop offset="0.261719" stop-color="rgb(6.880188%, 38.465881%, 69.837952%)" stop-opacity="1"/>
<stop offset="0.265625" stop-color="rgb(6.925964%, 38.670349%, 70.043945%)" stop-opacity="1"/>
<stop offset="0.269531" stop-color="rgb(6.971741%, 38.874817%, 70.248413%)" stop-opacity="1"/>
<stop offset="0.273437" stop-color="rgb(7.017517%, 39.080811%, 70.452881%)" stop-opacity="1"/>
<stop offset="0.277344" stop-color="rgb(7.063293%, 39.285278%, 70.657349%)" stop-opacity="1"/>
<stop offset="0.28125" stop-color="rgb(7.110596%, 39.489746%, 70.863342%)" stop-opacity="1"/>
<stop offset="0.285156" stop-color="rgb(7.156372%, 39.694214%, 71.06781%)" stop-opacity="1"/>
<stop offset="0.289062" stop-color="rgb(7.202148%, 39.900208%, 71.272278%)" stop-opacity="1"/>
<stop offset="0.292969" stop-color="rgb(7.247925%, 40.104675%, 71.476746%)" stop-opacity="1"/>
<stop offset="0.296875" stop-color="rgb(7.295227%, 40.309143%, 71.682739%)" stop-opacity="1"/>
<stop offset="0.300781" stop-color="rgb(7.341003%, 40.513611%, 71.887207%)" stop-opacity="1"/>
<stop offset="0.304688" stop-color="rgb(7.38678%, 40.719604%, 72.091675%)" stop-opacity="1"/>
<stop offset="0.308594" stop-color="rgb(7.432556%, 40.924072%, 72.296143%)" stop-opacity="1"/>
<stop offset="0.3125" stop-color="rgb(7.478333%, 41.12854%, 72.502136%)" stop-opacity="1"/>
<stop offset="0.316406" stop-color="rgb(7.524109%, 41.333008%, 72.706604%)" stop-opacity="1"/>
<stop offset="0.320312" stop-color="rgb(7.571411%, 41.539001%, 72.911072%)" stop-opacity="1"/>
<stop offset="0.324219" stop-color="rgb(7.617188%, 41.743469%, 73.11554%)" stop-opacity="1"/>
<stop offset="0.328125" stop-color="rgb(7.662964%, 41.947937%, 73.321533%)" stop-opacity="1"/>
<stop offset="0.332031" stop-color="rgb(7.70874%, 42.152405%, 73.526001%)" stop-opacity="1"/>
<stop offset="0.335937" stop-color="rgb(7.756042%, 42.358398%, 73.730469%)" stop-opacity="1"/>
<stop offset="0.34375" stop-color="rgb(7.798767%, 42.550659%, 73.922729%)" stop-opacity="1"/>
<stop offset="0.375" stop-color="rgb(7.843018%, 42.744446%, 74.116516%)" stop-opacity="1"/>
<stop offset="0.5" stop-color="rgb(7.843018%, 42.744446%, 74.116516%)" stop-opacity="1"/>
<stop offset="1" stop-color="rgb(7.843018%, 42.744446%, 74.116516%)" stop-opacity="1"/>
</linearGradient>
<clipPath id="clip-6">
<path clip-rule="nonzero" d="M 0 2304 L 3067 2304 L 3067 2573 L 0 2573 Z M 0 2304 "/>
</clipPath>
<clipPath id="clip-7">
<path clip-rule="nonzero" d="M 1751.28125 2572.191406 C 2146.429688 2550.269531 2577.609375 2476.660156 3026.070312 2319.21875 C 2577.699219 2476.601562 2146.351562 2550.269531 1751.28125 2572.191406 M 385.511719 2454.910156 C 385.457031 2454.898438 385.414062 2454.890625 385.359375 2454.878906 C 385.40625 2454.890625 385.464844 2454.898438 385.511719 2454.910156 M 383.992188 2454.558594 C 383.882812 2454.539062 383.847656 2454.53125 383.734375 2454.511719 C 383.832031 2454.53125 383.894531 2454.539062 383.992188 2454.558594 M 383.066406 2454.351562 C 382.84375 2454.300781 382.648438 2454.261719 382.425781 2454.210938 C 382.617188 2454.25 382.875 2454.308594 383.066406 2454.351562 M 381.785156 2454.058594 C 381.566406 2454.011719 381.277344 2453.949219 381.058594 2453.898438 C 381.296875 2453.949219 381.550781 2454.011719 381.785156 2454.058594 M 380.585938 2453.789062 C 380.253906 2453.710938 379.871094 2453.621094 379.542969 2453.550781 C 379.875 2453.628906 380.253906 2453.710938 380.585938 2453.789062 M 379.347656 2453.511719 C 379.019531 2453.429688 378.59375 2453.328125 378.265625 2453.261719 C 378.597656 2453.328125 379.019531 2453.429688 379.347656 2453.511719 M 378.121094 2453.21875 C 231.324219 2419.628906 104.179688 2383.578125 0 2350.789062 L 0 2350.78125 C 104.191406 2383.589844 231.296875 2419.628906 378.121094 2453.21875 M 3057.320312 2308.121094 C 3057.890625 2307.910156 3058.609375 2307.648438 3059.179688 2307.449219 C 3058.609375 2307.648438 3057.878906 2307.921875 3057.320312 2308.121094 M 3064.320312 2305.601562 C 3065.140625 2305.300781 3065.980469 2305 3066.800781 2304.699219 C 3065.941406 2305.011719 3065.171875 2305.289062 3064.320312 2305.601562 "/>
</clipPath>
<clipPath id="clip-8">
<path clip-rule="nonzero" d="M 1751.28125 2572.191406 C 2146.429688 2550.269531 2577.609375 2476.660156 3026.070312 2319.21875 C 2577.699219 2476.601562 2146.351562 2550.269531 1751.28125 2572.191406 M 385.511719 2454.910156 C 385.457031 2454.898438 385.414062 2454.890625 385.359375 2454.878906 C 385.40625 2454.890625 385.464844 2454.898438 385.511719 2454.910156 M 383.992188 2454.558594 C 383.882812 2454.539062 383.847656 2454.53125 383.734375 2454.511719 C 383.832031 2454.53125 383.894531 2454.539062 383.992188 2454.558594 M 383.066406 2454.351562 C 382.84375 2454.300781 382.648438 2454.261719 382.425781 2454.210938 C 382.617188 2454.25 382.875 2454.308594 383.066406 2454.351562 M 381.785156 2454.058594 C 381.566406 2454.011719 381.277344 2453.949219 381.058594 2453.898438 C 381.296875 2453.949219 381.550781 2454.011719 381.785156 2454.058594 M 380.585938 2453.789062 C 380.253906 2453.710938 379.871094 2453.621094 379.542969 2453.550781 C 379.875 2453.628906 380.253906 2453.710938 380.585938 2453.789062 M 379.347656 2453.511719 C 379.019531 2453.429688 378.59375 2453.328125 378.265625 2453.261719 C 378.597656 2453.328125 379.019531 2453.429688 379.347656 2453.511719 M 378.121094 2453.21875 C 231.324219 2419.628906 104.179688 2383.578125 0 2350.789062 L 0 2350.78125 C 104.191406 2383.589844 231.296875 2419.628906 378.121094 2453.21875 M 3057.320312 2308.121094 C 3057.890625 2307.910156 3058.609375 2307.648438 3059.179688 2307.449219 C 3058.609375 2307.648438 3057.878906 2307.921875 3057.320312 2308.121094 M 3064.320312 2305.601562 C 3065.140625 2305.300781 3065.980469 2305 3066.800781 2304.699219 C 3065.941406 2305.011719 3065.171875 2305.289062 3064.320312 2305.601562 "/>
</clipPath>
<linearGradient id="linear-pattern-2" gradientUnits="userSpaceOnUse" x1="0.269634" y1="0" x2="0.357077" y2="0" gradientTransform="matrix(0, -3059, 3059, 0, 2627.5, 3397)">
<stop offset="0" stop-color="rgb(10.281372%, 45.375061%, 74.595642%)" stop-opacity="1"/>
<stop offset="0.125" stop-color="rgb(10.374451%, 45.487976%, 74.688721%)" stop-opacity="1"/>
<stop offset="0.25" stop-color="rgb(10.562134%, 45.715332%, 74.874878%)" stop-opacity="1"/>
<stop offset="0.375" stop-color="rgb(10.748291%, 45.942688%, 75.062561%)" stop-opacity="1"/>
<stop offset="0.5" stop-color="rgb(10.934448%, 46.170044%, 75.248718%)" stop-opacity="1"/>
<stop offset="0.625" stop-color="rgb(11.122131%, 46.3974%, 75.434875%)" stop-opacity="1"/>
<stop offset="0.75" stop-color="rgb(11.308289%, 46.624756%, 75.622559%)" stop-opacity="1"/>
<stop offset="0.875" stop-color="rgb(11.494446%, 46.852112%, 75.808716%)" stop-opacity="1"/>
<stop offset="1" stop-color="rgb(11.682129%, 47.079468%, 75.994873%)" stop-opacity="1"/>
</linearGradient>
<clipPath id="clip-9">
<path clip-rule="nonzero" d="M 0 981 L 5000 981 L 5000 2741 L 0 2741 Z M 0 981 "/>
</clipPath>
<clipPath id="clip-10">
<path clip-rule="nonzero" d="M 1971.570312 2740.800781 C 1119.109375 2740.789062 403.273438 2522.140625 0 2362 L 0 2350.789062 C 104.179688 2383.578125 231.324219 2419.628906 378.121094 2453.21875 C 378.167969 2453.238281 378.21875 2453.25 378.265625 2453.261719 C 378.59375 2453.328125 379.019531 2453.429688 379.347656 2453.511719 C 379.445312 2453.53125 379.449219 2453.53125 379.542969 2453.550781 C 379.871094 2453.621094 380.253906 2453.710938 380.585938 2453.789062 C 380.726562 2453.820312 380.917969 2453.859375 381.058594 2453.898438 C 381.277344 2453.949219 381.566406 2454.011719 381.785156 2454.058594 C 382.023438 2454.121094 382.191406 2454.148438 382.425781 2454.210938 C 382.648438 2454.261719 382.84375 2454.300781 383.066406 2454.351562 C 383.304688 2454.410156 383.496094 2454.449219 383.734375 2454.511719 C 383.847656 2454.53125 383.882812 2454.539062 383.992188 2454.558594 C 384.464844 2454.671875 384.886719 2454.769531 385.359375 2454.878906 C 385.414062 2454.890625 385.457031 2454.898438 385.511719 2454.910156 C 682.46875 2522.390625 1058.789062 2579.488281 1487.011719 2579.488281 C 1573.070312 2579.488281 1661.25 2577.179688 1751.28125 2572.191406 C 2146.351562 2550.269531 2577.699219 2476.601562 3026.070312 2319.21875 C 3036.480469 2315.558594 3046.878906 2311.871094 3057.320312 2308.121094 C 3057.878906 2307.921875 3058.609375 2307.648438 3059.179688 2307.449219 C 3060.890625 2306.828125 3062.609375 2306.210938 3064.320312 2305.601562 C 3065.171875 2305.289062 3065.941406 2305.011719 3066.800781 2304.699219 C 3070.21875 2303.46875 3073.570312 2302.25 3077 2301 C 4036.570312 1951.480469 4663.300781 1363.621094 5000 981.921875 L 5000 1727.929688 C 4460.980469 2122.441406 3571.03125 2621.230469 2389 2723 C 2246.851562 2735.238281 2107.488281 2740.800781 1971.570312 2740.800781 "/>
</clipPath>
<clipPath id="clip-11">
<path clip-rule="nonzero" d="M 1971.570312 2740.800781 C 1119.109375 2740.789062 403.273438 2522.140625 0 2362 L 0 2350.789062 C 104.179688 2383.578125 231.324219 2419.628906 378.121094 2453.21875 C 378.167969 2453.238281 378.21875 2453.25 378.265625 2453.261719 C 378.59375 2453.328125 379.019531 2453.429688 379.347656 2453.511719 C 379.445312 2453.53125 379.449219 2453.53125 379.542969 2453.550781 C 379.871094 2453.621094 380.253906 2453.710938 380.585938 2453.789062 C 380.726562 2453.820312 380.917969 2453.859375 381.058594 2453.898438 C 381.277344 2453.949219 381.566406 2454.011719 381.785156 2454.058594 C 382.023438 2454.121094 382.191406 2454.148438 382.425781 2454.210938 C 382.648438 2454.261719 382.84375 2454.300781 383.066406 2454.351562 C 383.304688 2454.410156 383.496094 2454.449219 383.734375 2454.511719 C 383.847656 2454.53125 383.882812 2454.539062 383.992188 2454.558594 C 384.464844 2454.671875 384.886719 2454.769531 385.359375 2454.878906 C 385.414062 2454.890625 385.457031 2454.898438 385.511719 2454.910156 C 682.46875 2522.390625 1058.789062 2579.488281 1487.011719 2579.488281 C 1573.070312 2579.488281 1661.25 2577.179688 1751.28125 2572.191406 C 2146.351562 2550.269531 2577.699219 2476.601562 3026.070312 2319.21875 C 3036.480469 2315.558594 3046.878906 2311.871094 3057.320312 2308.121094 C 3057.878906 2307.921875 3058.609375 2307.648438 3059.179688 2307.449219 C 3060.890625 2306.828125 3062.609375 2306.210938 3064.320312 2305.601562 C 3065.171875 2305.289062 3065.941406 2305.011719 3066.800781 2304.699219 C 3070.21875 2303.46875 3073.570312 2302.25 3077 2301 C 4036.570312 1951.480469 4663.300781 1363.621094 5000 981.921875 L 5000 1727.929688 C 4460.980469 2122.441406 3571.03125 2621.230469 2389 2723 C 2246.851562 2735.238281 2107.488281 2740.800781 1971.570312 2740.800781 "/>
</clipPath>
<linearGradient id="linear-pattern-3" gradientUnits="userSpaceOnUse" x1="0.450252" y1="0" x2="2.343247" y2="0" gradientTransform="matrix(-457.24, -1566.61, 1566.61, -457.24, 2999.62, 4090.1)">
<stop offset="0" stop-color="rgb(9.570312%, 45.109558%, 74.520874%)" stop-opacity="1"/>
<stop offset="0.015625" stop-color="rgb(9.608459%, 45.298767%, 74.710083%)" stop-opacity="1"/>
<stop offset="0.03125" stop-color="rgb(9.683228%, 45.677185%, 75.088501%)" stop-opacity="1"/>
<stop offset="0.046875" stop-color="rgb(9.759521%, 46.057129%, 75.468445%)" stop-opacity="1"/>
<stop offset="0.0625" stop-color="rgb(9.835815%, 46.435547%, 75.846863%)" stop-opacity="1"/>
<stop offset="0.078125" stop-color="rgb(9.910583%, 46.815491%, 76.226807%)" stop-opacity="1"/>
<stop offset="0.09375" stop-color="rgb(9.986877%, 47.193909%, 76.605225%)" stop-opacity="1"/>
<stop offset="0.109375" stop-color="rgb(10.063171%, 47.573853%, 76.985168%)" stop-opacity="1"/>
<stop offset="0.125" stop-color="rgb(10.139465%, 47.952271%, 77.363586%)" stop-opacity="1"/>
<stop offset="0.140625" stop-color="rgb(10.214233%, 48.332214%, 77.74353%)" stop-opacity="1"/>
<stop offset="0.15625" stop-color="rgb(10.290527%, 48.710632%, 78.121948%)" stop-opacity="1"/>
<stop offset="0.171875" stop-color="rgb(10.366821%, 49.08905%, 78.501892%)" stop-opacity="1"/>
<stop offset="0.1875" stop-color="rgb(10.441589%, 49.468994%, 78.88031%)" stop-opacity="1"/>
<stop offset="0.203125" stop-color="rgb(10.517883%, 49.847412%, 79.260254%)" stop-opacity="1"/>
<stop offset="0.21875" stop-color="rgb(10.594177%, 50.227356%, 79.638672%)" stop-opacity="1"/>
<stop offset="0.234375" stop-color="rgb(10.668945%, 50.605774%, 80.018616%)" stop-opacity="1"/>
<stop offset="0.25" stop-color="rgb(10.745239%, 50.985718%, 80.397034%)" stop-opacity="1"/>
<stop offset="0.265625" stop-color="rgb(10.821533%, 51.364136%, 80.776978%)" stop-opacity="1"/>
<stop offset="0.28125" stop-color="rgb(10.896301%, 51.74408%, 81.155396%)" stop-opacity="1"/>
<stop offset="0.3125" stop-color="rgb(10.957336%, 52.044678%, 81.455994%)" stop-opacity="1"/>
<stop offset="0.375" stop-color="rgb(10.980225%, 52.156067%, 81.567383%)" stop-opacity="1"/>
<stop offset="0.5" stop-color="rgb(10.980225%, 52.156067%, 81.567383%)" stop-opacity="1"/>
<stop offset="1" stop-color="rgb(10.980225%, 52.156067%, 81.567383%)" stop-opacity="1"/>
</linearGradient>
</defs>
<g clip-path="url(#clip-0)">
<g clip-path="url(#clip-1)">
<g clip-path="url(#clip-2)">
<path fill-rule="nonzero" fill="url(#linear-pattern-0)" d="M 0 2579.488281 L 5000 2579.488281 L 5000 434.320312 L 0 434.320312 Z M 0 2579.488281 "/>
</g>
</g>
</g>
<g clip-path="url(#clip-3)">
<g clip-path="url(#clip-4)">
<g clip-path="url(#clip-5)">
<path fill-rule="nonzero" fill="url(#linear-pattern-1)" d="M 392.492188 4344.773438 L 5542.773438 2841.582031 L 4607.507812 -362.855469 L -542.773438 1140.335938 Z M 392.492188 4344.773438 "/>
</g>
</g>
</g>
<g clip-path="url(#clip-6)">
<g clip-path="url(#clip-7)">
<g clip-path="url(#clip-8)">
<path fill-rule="nonzero" fill="url(#linear-pattern-2)" d="M 0 2572.191406 L 3066.800781 2572.191406 L 3066.800781 2304.699219 L 0 2304.699219 Z M 0 2572.191406 "/>
</g>
</g>
</g>
<g clip-path="url(#clip-9)">
<g clip-path="url(#clip-10)">
<g clip-path="url(#clip-11)">
<path fill-rule="nonzero" fill="url(#linear-pattern-3)" d="M 392.492188 4085.574219 L 5473.058594 2602.730469 L 4607.507812 -362.855469 L -473.058594 1119.988281 Z M 392.492188 4085.574219 "/>
</g>
</g>
</g>
<path fill-rule="nonzero" fill="rgb(100%, 100%, 100%)" fill-opacity="1" d="M 5160.441406 834.261719 C 5121.328125 882.519531 5081.320312 930.058594 5040.371094 976.769531 C 5019.898438 1000.128906 4999.210938 1023.289062 4978.308594 1046.261719 C 4957.378906 1069.210938 4936.238281 1091.960938 4914.910156 1114.53125 C 4829.53125 1204.738281 4740.640625 1291.609375 4648.648438 1375.03125 C 4602.660156 1416.75 4555.800781 1457.5 4508.25 1497.421875 C 4460.679688 1537.320312 4412.378906 1576.339844 4363.28125 1614.339844 C 4265.121094 1690.371094 4164.050781 1762.628906 4060.289062 1830.789062 C 3956.53125 1898.949219 3850.089844 1963.011719 3741.28125 2022.738281 C 3686.878906 2052.601562 3631.890625 2081.398438 3576.339844 2109.070312 C 3520.78125 2136.699219 3464.660156 2163.210938 3408.050781 2188.609375 C 3351.429688 2214.011719 3294.320312 2238.28125 3236.769531 2261.441406 L 3193.488281 2278.53125 C 3186.289062 2281.421875 3179.011719 2284.109375 3171.78125 2286.890625 L 3150.039062 2295.179688 C 3135.578125 2300.78125 3120.980469 2306.03125 3106.429688 2311.398438 L 3084.601562 2319.429688 L 3062.660156 2327.160156 L 3018.761719 2342.589844 C 3011.46875 2345.210938 3004.089844 2347.609375 2996.738281 2350.070312 L 2974.671875 2357.421875 L 2952.601562 2364.769531 C 2945.238281 2367.210938 2937.898438 2369.710938 2930.488281 2371.988281 L 2886.109375 2385.960938 C 2878.710938 2388.269531 2871.328125 2390.640625 2863.910156 2392.898438 L 2841.621094 2399.53125 L 2797.019531 2412.769531 C 2782.109375 2417.03125 2767.160156 2421.140625 2752.230469 2425.328125 C 2737.289062 2429.480469 2722.390625 2433.78125 2707.359375 2437.601562 L 2662.371094 2449.398438 L 2651.121094 2452.339844 L 2639.820312 2455.109375 L 2617.238281 2460.648438 L 2594.648438 2466.191406 C 2587.121094 2468.03125 2579.601562 2469.910156 2572.03125 2471.589844 L 2526.691406 2481.949219 L 2515.351562 2484.539062 L 2509.679688 2485.828125 L 2504 2487.039062 L 2481.25 2491.859375 L 2458.5 2496.691406 L 2447.128906 2499.101562 C 2443.328125 2499.910156 2439.550781 2500.71875 2435.738281 2501.441406 L 2390.101562 2510.390625 C 2382.488281 2511.859375 2374.898438 2513.429688 2367.269531 2514.808594 L 2344.390625 2518.941406 C 2329.128906 2521.671875 2313.878906 2524.488281 2298.609375 2527.140625 L 2252.730469 2534.699219 C 2245.078125 2535.929688 2237.441406 2537.269531 2229.78125 2538.421875 L 2206.789062 2541.859375 L 2183.789062 2545.300781 L 2172.289062 2547.019531 C 2168.460938 2547.589844 2164.628906 2548.171875 2160.789062 2548.671875 L 2114.710938 2554.859375 L 2103.191406 2556.410156 L 2097.421875 2557.179688 L 2091.648438 2557.871094 L 2068.570312 2560.628906 L 2045.488281 2563.390625 C 2037.789062 2564.308594 2030.101562 2565.269531 2022.390625 2566.03125 L 1976.160156 2570.890625 C 1729.429688 2595.621094 1480.878906 2600.769531 1233.460938 2587.171875 C 1171.609375 2583.730469 1109.820312 2579.199219 1048.140625 2573.539062 C 986.464844 2567.75 924.902344 2560.859375 863.488281 2552.871094 C 740.660156 2536.890625 618.4375 2516.378906 497.152344 2491.359375 C 254.617188 2441.308594 15.605469 2373.800781 -216.457031 2287.371094 L -209.542969 2268.628906 C 22.007812 2353.320312 260.332031 2419.101562 502 2467.488281 C 622.84375 2491.671875 744.574219 2511.351562 866.847656 2526.53125 C 927.980469 2534.121094 989.246094 2540.609375 1050.609375 2546 C 1111.980469 2551.261719 1173.441406 2555.410156 1234.949219 2558.46875 C 1481 2570.53125 1727.921875 2563.941406 1972.75 2537.941406 L 2018.628906 2532.839844 C 2026.28125 2532.039062 2033.910156 2531.039062 2041.539062 2530.078125 L 2064.441406 2527.210938 L 2087.339844 2524.328125 L 2093.058594 2523.609375 L 2098.78125 2522.808594 L 2110.210938 2521.210938 L 2155.910156 2514.789062 C 2159.730469 2514.28125 2163.519531 2513.679688 2167.328125 2513.078125 L 2178.730469 2511.308594 L 2201.53125 2507.761719 L 2224.328125 2504.21875 C 2231.929688 2503.03125 2239.5 2501.660156 2247.089844 2500.378906 L 2292.578125 2492.609375 C 2307.71875 2489.890625 2322.828125 2487 2337.960938 2484.210938 L 2360.640625 2479.980469 C 2368.199219 2478.558594 2375.71875 2476.960938 2383.269531 2475.460938 L 2428.5 2466.308594 C 2432.269531 2465.570312 2436.03125 2464.738281 2439.78125 2463.921875 L 2473.589844 2456.539062 L 2496.128906 2451.621094 L 2501.769531 2450.390625 L 2507.390625 2449.078125 L 2518.621094 2446.441406 L 2563.539062 2435.890625 C 2571.039062 2434.191406 2578.488281 2432.28125 2585.941406 2430.398438 L 2608.320312 2424.769531 L 2630.691406 2419.148438 L 2641.878906 2416.339844 L 2653.019531 2413.351562 L 2697.578125 2401.390625 C 2712.460938 2397.511719 2727.210938 2393.148438 2742.011719 2388.949219 C 2756.789062 2384.699219 2771.589844 2380.550781 2786.351562 2376.230469 L 2830.5 2362.828125 L 2852.570312 2356.140625 C 2859.910156 2353.859375 2867.21875 2351.449219 2874.539062 2349.121094 L 2918.460938 2335.011719 C 2925.800781 2332.710938 2933.058594 2330.179688 2940.339844 2327.71875 L 2962.191406 2320.300781 L 2984.03125 2312.878906 C 2991.300781 2310.410156 2998.601562 2307.980469 3005.820312 2305.339844 L 3049.25 2289.78125 L 3070.960938 2281.988281 L 3092.550781 2273.910156 C 3106.941406 2268.488281 3121.378906 2263.210938 3135.691406 2257.570312 L 3157.191406 2249.21875 C 3164.351562 2246.421875 3171.539062 2243.71875 3178.660156 2240.808594 L 3221.460938 2223.621094 C 3278.371094 2200.320312 3334.828125 2175.929688 3390.78125 2150.429688 C 3446.730469 2124.929688 3502.179688 2098.328125 3557.070312 2070.640625 C 3611.941406 2042.898438 3666.238281 2014.050781 3719.949219 1984.148438 C 3827.378906 1924.351562 3932.421875 1860.28125 4034.761719 1792.179688 C 4137.101562 1724.078125 4236.75 1651.949219 4333.46875 1576.109375 C 4381.851562 1538.210938 4429.429688 1499.300781 4476.28125 1459.53125 C 4523.109375 1419.738281 4569.238281 1379.128906 4614.511719 1337.578125 C 4705.050781 1254.488281 4792.488281 1168.03125 4876.421875 1078.300781 C 4897.378906 1055.851562 4918.148438 1033.230469 4938.71875 1010.410156 C 4959.25 987.570312 4979.570312 964.550781 4999.679688 941.328125 C 5039.898438 894.910156 5079.171875 847.679688 5117.558594 799.730469 L 5160.441406 834.261719 "/>
</svg>
